<svg width="51" height="50" viewBox="0 0 51 50" fill="none" xmlns="http://www.w3.org/2000/svg">
<rect x="0.185181" width="50" height="50" rx="13.4228" fill="#333" fill-opacity="1"/>
<g filter="url(#filter0_i_2_33)">
<path d="M21.2004 32.3474C21.2004 32.447 21.0887 32.5266 20.948 32.5266C20.7878 32.5416 20.6762 32.4619 20.6762 32.3474C20.6762 32.2479 20.7878 32.1682 20.9286 32.1682C21.0742 32.1533 21.2004 32.2329 21.2004 32.3474ZM19.6909 32.1234C19.6569 32.223 19.754 32.3375 19.8996 32.3673C20.0258 32.4171 20.1714 32.3673 20.2005 32.2678C20.2296 32.1682 20.1374 32.0537 19.9918 32.0089C19.8656 31.9741 19.7249 32.0238 19.6909 32.1234ZM21.8362 32.0388C21.6954 32.0736 21.5984 32.1682 21.6129 32.2827C21.6275 32.3823 21.7537 32.447 21.8993 32.4121C22.04 32.3773 22.1371 32.2827 22.1226 32.1831C22.108 32.0886 21.9769 32.0239 21.8362 32.0388ZM25.0299 12.963C18.2979 12.963 13.1482 18.2049 13.1482 25.1094C13.1482 30.63 16.536 35.3541 21.3751 37.0168C21.9964 37.1313 22.2148 36.738 22.2148 36.4145C22.2148 36.1058 22.2002 34.4033 22.2002 33.358C22.2002 33.358 18.8027 34.1047 18.0892 31.8745C18.0892 31.8745 17.5359 30.4259 16.7399 30.0526C16.7399 30.0526 15.6284 29.271 16.8175 29.2859C16.8175 29.2859 18.0261 29.3855 18.691 30.5703C19.754 32.4918 21.5353 31.9392 22.2293 31.6107C22.341 30.8142 22.6565 30.2616 23.0059 29.9331C20.2927 29.6244 17.5553 29.2212 17.5553 24.4324C17.5553 23.0634 17.9241 22.3764 18.7007 21.5003C18.5745 21.1767 18.162 19.8426 18.8269 18.1202C19.8413 17.7967 22.1759 19.4643 22.1759 19.4643C23.1467 19.1855 24.1902 19.0412 25.224 19.0412C26.2579 19.0412 27.3014 19.1855 28.2721 19.4643C28.2721 19.4643 30.6067 17.7917 31.6211 18.1202C32.2861 19.8476 31.8735 21.1767 31.7473 21.5003C32.5239 22.3814 32.9996 23.0684 32.9996 24.4324C32.9996 29.2362 30.1408 29.6195 27.4276 29.9331C27.8741 30.3263 28.2527 31.073 28.2527 32.2429C28.2527 33.9205 28.2381 35.9963 28.2381 36.4045C28.2381 36.7281 28.4614 37.1213 29.0778 37.0068C33.9315 35.3541 37.2222 30.63 37.2222 25.1094C37.2222 18.2049 31.7619 12.963 25.0299 12.963ZM17.8659 30.1322C17.8028 30.182 17.8174 30.2965 17.8999 30.3911C17.9775 30.4707 18.0892 30.5056 18.1523 30.4408C18.2154 30.3911 18.2008 30.2766 18.1183 30.182C18.0406 30.1023 17.929 30.0675 17.8659 30.1322ZM17.3417 29.729C17.3077 29.7937 17.3563 29.8733 17.4533 29.9231C17.531 29.9729 17.6281 29.958 17.6621 29.8883C17.696 29.8236 17.6475 29.7439 17.5504 29.6941C17.4533 29.6643 17.3757 29.6792 17.3417 29.729ZM18.9143 31.5012C18.8366 31.5659 18.8658 31.7152 18.9774 31.8098C19.089 31.9243 19.2298 31.9392 19.2929 31.8596C19.356 31.7949 19.3269 31.6455 19.2298 31.5509C19.123 31.4364 18.9774 31.4215 18.9143 31.5012ZM18.361 30.7694C18.2833 30.8192 18.2833 30.9486 18.361 31.0631C18.4386 31.1776 18.5697 31.2274 18.6328 31.1776C18.7104 31.1129 18.7104 30.9834 18.6328 30.869C18.5648 30.7545 18.4386 30.7047 18.361 30.7694Z" fill="#14cf93"/>
</g>
<defs>
<filter id="filter0_i_2_33" x="13.1482" y="11.6897" width="24.4985" height="25.3474" filterUnits="userSpaceOnUse" color-interpolation-filters="sRGB">
<feFlood flood-opacity="0" result="BackgroundImageFix"/>
<feBlend mode="normal" in="SourceGraphic" in2="BackgroundImageFix" result="shape"/>
<feColorMatrix in="SourceAlpha" type="matrix" values="0 0 0 0 0 0 0 0 0 0 0 0 0 0 0 0 0 0 127 0" result="hardAlpha"/>
<feOffset dx="0.424435" dy="-1.27331"/>
<feGaussianBlur stdDeviation="0.848871"/>
<feComposite in2="hardAlpha" operator="arithmetic" k2="-1" k3="1"/>
<feColorMatrix type="matrix" values="0 0 0 0 0 0 0 0 0 0 0 0 0 0 0 0 0 0 0.25 0"/>
<feBlend mode="normal" in2="shape" result="effect1_innerShadow_2_33"/>
</filter>
</defs>
</svg>
