<svg width="50" height="50" viewBox="0 0 50 50" fill="none" xmlns="http://www.w3.org/2000/svg">
<rect width="50" height="50" rx="13.4228" fill="#333" fill-opacity="1"/>
<g filter="url(#filter0_i_2_31)">
<path d="M25.2589 19.1611C21.8866 19.1611 19.1664 21.8812 19.1664 25.2536C19.1664 28.626 21.8866 31.3462 25.2589 31.3462C28.6313 31.3462 31.3515 28.626 31.3515 25.2536C31.3515 21.8812 28.6313 19.1611 25.2589 19.1611ZM25.2589 29.2146C23.0796 29.2146 21.298 27.4382 21.298 25.2536C21.298 23.069 23.0743 21.2927 25.2589 21.2927C27.4436 21.2927 29.2199 23.069 29.2199 25.2536C29.2199 27.4382 27.4383 29.2146 25.2589 29.2146ZM33.0218 18.9118C33.0218 19.7019 32.3855 20.3329 31.6007 20.3329C30.8106 20.3329 30.1796 19.6966 30.1796 18.9118C30.1796 18.1271 30.8159 17.4908 31.6007 17.4908C32.3855 17.4908 33.0218 18.1271 33.0218 18.9118ZM37.057 20.3541C36.9668 18.4505 36.532 16.7643 35.1375 15.3751C33.7482 13.9858 32.062 13.551 30.1584 13.4556C28.1965 13.3442 22.3161 13.3442 20.3541 13.4556C18.4559 13.5457 16.7697 13.9805 15.3751 15.3698C13.9806 16.759 13.5511 18.4452 13.4556 20.3488C13.3443 22.3107 13.3443 28.1912 13.4556 30.1531C13.5458 32.0567 13.9806 33.7429 15.3751 35.1321C16.7697 36.5214 18.4506 36.9562 20.3541 37.0516C22.3161 37.163 28.1965 37.163 30.1584 37.0516C32.062 36.9615 33.7482 36.5267 35.1375 35.1321C36.5267 33.7429 36.9615 32.0567 37.057 30.1531C37.1683 28.1912 37.1683 22.316 37.057 20.3541ZM34.5224 32.2582C34.1088 33.2975 33.3081 34.0982 32.2635 34.517C30.6993 35.1374 26.9876 34.9943 25.2589 34.9943C23.5303 34.9943 19.8133 35.1321 18.2544 34.517C17.2151 34.1035 16.4144 33.3028 15.9955 32.2582C15.3751 30.694 15.5183 26.9822 15.5183 25.2536C15.5183 23.525 15.3804 19.808 15.9955 18.249C16.4091 17.2097 17.2098 16.4091 18.2544 15.9902C19.8186 15.3698 23.5303 15.5129 25.2589 15.5129C26.9876 15.5129 30.7046 15.3751 32.2635 15.9902C33.3028 16.4038 34.1035 17.2044 34.5224 18.249C35.1428 19.8133 34.9996 23.525 34.9996 25.2536C34.9996 26.9822 35.1428 30.6993 34.5224 32.2582Z" fill="#14cf93"/>
</g>
<defs>
<filter id="filter0_i_2_31" x="13.3721" y="12.0988" width="24.1928" height="25.0364" filterUnits="userSpaceOnUse" color-interpolation-filters="sRGB">
<feFlood flood-opacity="0" result="BackgroundImageFix"/>
<feBlend mode="normal" in="SourceGraphic" in2="BackgroundImageFix" result="shape"/>
<feColorMatrix in="SourceAlpha" type="matrix" values="0 0 0 0 0 0 0 0 0 0 0 0 0 0 0 0 0 0 127 0" result="hardAlpha"/>
<feOffset dx="0.424435" dy="-1.27331"/>
<feGaussianBlur stdDeviation="0.848871"/>
<feComposite in2="hardAlpha" operator="arithmetic" k2="-1" k3="1"/>
<feColorMatrix type="matrix" values="0 0 0 0 0 0 0 0 0 0 0 0 0 0 0 0 0 0 0.25 0"/>
<feBlend mode="normal" in2="shape" result="effect1_innerShadow_2_31"/>
</filter>
</defs>
</svg>
